<?xml version="1.0" encoding="UTF-8"?>
<svg version="1.1" xmlns="http://www.w3.org/2000/svg" width="260" height="280">
<path d="M0 0 C85.8 0 171.6 0 260 0 C260 92.4 260 184.8 260 280 C174.2 280 88.4 280 0 280 C0 187.6 0 95.2 0 0 Z " fill="#FEFEFE" transform="translate(0,0)"/>
<path d="M0 0 C0.84264404 0.43530029 1.68528809 0.87060059 2.5534668 1.3190918 C8.66268965 4.19002522 14.53401973 5.13739646 21.19018555 5.95581055 C38.25948067 8.09330766 38.25948067 8.09330766 43.7097168 14.47924805 C44.23952148 15.39963867 44.76932617 16.3200293 45.31518555 17.26831055 C46.16209961 18.73204102 46.16209961 18.73204102 47.02612305 20.2253418 C47.51338867 21.10577148 48.0006543 21.98620117 48.50268555 22.89331055 C49.14206055 23.90393555 49.78143555 24.91456055 50.44018555 25.95581055 C52.00419044 30.27982408 52.0969549 34.34714996 51.50268555 38.89331055 C50.50268555 40.89331055 49.50268555 42.89331055 48.50268555 44.89331055 C49.05107617 47.87551183 49.05107617 47.87551183 50.50268555 50.89331055 C50.98770241 52.20365996 51.46655717 53.51630185 51.94018555 54.83081055 C53.09070995 57.87025562 54.32320101 60.86418221 55.6159668 63.84643555 C62.88656379 80.62966384 65.62149281 91.20582588 59.50268555 108.89331055 C58.64756164 110.92263444 57.77328944 112.94402377 56.87768555 114.95581055 C55.11277848 119.00127525 54.14096475 122.51369999 53.62768555 126.89331055 C52.85659325 133.09984753 51.06710279 138.70636756 49.00268555 144.58081055 C48.69347168 145.46704102 48.38425781 146.35327148 48.06567383 147.26635742 C45.77251591 153.62348019 45.77251591 153.62348019 43.50268555 155.89331055 C43.92873495 151.84584117 44.39967512 148.23869846 45.56518555 144.33081055 C46.55407903 140.70486776 46.65532979 137.63309457 46.50268555 133.89331055 C45.51268555 135.87331055 44.52268555 137.85331055 43.50268555 139.89331055 C42.18268555 139.89331055 40.86268555 139.89331055 39.50268555 139.89331055 C39.40213867 140.63194336 39.3015918 141.37057617 39.19799805 142.1315918 C37.68244036 150.30107058 34.72647419 154.57542116 28.68237305 160.2253418 C25.9871648 163.52431534 25.75753921 165.68822506 25.50268555 169.89331055 C25.4356543 170.73635742 25.36862305 171.5794043 25.29956055 172.44799805 C25.13813983 180.43832378 26.90392857 187.27662325 31.50268555 193.89331055 C33.71483605 195.64914779 33.71483605 195.64914779 36.25268555 197.01831055 C37.48245117 197.73374023 37.48245117 197.73374023 38.73706055 198.46362305 C46.44174642 202.44655388 53.81577661 204.18542304 62.31518555 205.89331055 C92.8391328 212.08517306 92.8391328 212.08517306 101.25268555 222.9128418 C105.57563267 229.76201115 106.50268555 234.65999278 106.50268555 242.89331055 C38.85268555 242.89331055 -28.79731445 242.89331055 -98.49731445 242.89331055 C-96.94004603 231.99243156 -92.0940778 222.07175267 -83.49731445 214.89331055 C-76.39467088 210.56344576 -68.74502893 209.11873872 -60.68481445 207.39331055 C-43.59348275 203.78863462 -43.59348275 203.78863462 -28.15356445 195.9440918 C-26.49731445 194.89331055 -26.49731445 194.89331055 -23.49731445 193.89331055 C-22.3471092 191.64587298 -22.3471092 191.64587298 -21.49731445 188.89331055 C-21.1518457 187.99741211 -20.80637695 187.10151367 -20.45043945 186.1784668 C-18.71548183 180.19855139 -19.311271 174.06596663 -19.49731445 167.89331055 C-19.4921582 167.07733398 -19.48700195 166.26135742 -19.48168945 165.4206543 C-19.69455141 160.06717621 -22.24744306 157.51573879 -25.7746582 153.8581543 C-28.21175914 151.07842239 -29.27088635 148.35616637 -30.49731445 144.89331055 C-31.02131836 146.37444336 -31.02131836 146.37444336 -31.5559082 147.88549805 C-32.01547659 149.17979268 -32.47511568 150.47406221 -32.93481445 151.76831055 C-33.16491211 152.41928711 -33.39500977 153.07026367 -33.63208008 153.7409668 C-35.3840332 158.66674805 -35.3840332 158.66674805 -36.49731445 160.89331055 C-37.07062372 166.51174136 -35.77448593 170.08510642 -33.2746582 174.9753418 C-33.01813477 175.60827148 -32.76161133 176.24120117 -32.49731445 176.89331055 C-32.82731445 177.55331055 -33.15731445 178.21331055 -33.49731445 178.89331055 C-34.64574368 177.60395136 -35.79097673 176.31174476 -36.93481445 175.01831055 C-37.57290039 174.29901367 -38.21098633 173.5797168 -38.8684082 172.83862305 C-41.78837955 169.35146302 -41.77639397 166.76170355 -41.72875977 162.34936523 C-41.35892548 158.42475243 -39.89719707 155.11926342 -38.37231445 151.51831055 C-35.23655387 143.40143963 -35.11136578 138.02694445 -38.2980957 129.8347168 C-40.10809893 125.8718463 -42.50952243 122.29442406 -44.87231445 118.64331055 C-53.32654986 105.56111006 -58.00607669 93.51701864 -54.8840332 77.80737305 C-51.79079235 67.85994652 -46.69691575 58.18927732 -41.3527832 49.2644043 C-37.82500615 43.78269743 -37.82500615 43.78269743 -36.5090332 37.5925293 C-37.10774138 35.26847965 -37.10774138 35.26847965 -38.49731445 31.89331055 C-39.63426916 24.40712823 -36.90862196 19.49608764 -32.8371582 13.4128418 C-25.0224138 2.80597106 -13.34954785 -5.91587647 0 0 Z " fill="#C6CACC" transform="translate(126.497314453125,17.106689453125)"/>
<path d="M0 0 C2 1 2 1 3 2 C3.66 1.34 4.32 0.68 5 0 C7.1640625 -0.1953125 7.1640625 -0.1953125 9.625 -0.125 C10.85089844 -0.09792969 10.85089844 -0.09792969 12.1015625 -0.0703125 C13.04128906 -0.03550781 13.04128906 -0.03550781 14 0 C14.98120464 3.05263664 14.98120464 4.94736336 14 8 C1.625 8 1.625 8 -2 7 C-1.125 1.125 -1.125 1.125 0 0 Z " fill="#A5A5A5" transform="translate(168,267)"/>
<path d="M0 0 C0.7425 0.185625 1.485 0.37125 2.25 0.5625 C5.05944338 1.0094569 6.32144789 0.73051421 9 0 C10.99963028 -0.03845443 13.00051633 -0.04544281 15 0 C15.79953138 3.28696233 16.09658936 4.71023192 15 8 C13.56344146 8.08131463 12.1255517 8.13933559 10.6875 8.1875 C9.48673828 8.23970703 9.48673828 8.23970703 8.26171875 8.29296875 C5.52148416 7.93801608 4.70828921 7.10633718 3 5 C2.67 5.33 2.34 5.66 2 6 C2.66 6.66 3.32 7.32 4 8 C2.35 8 0.7 8 -1 8 C-0.690625 7.401875 -0.38125 6.80375 -0.0625 6.1875 C1.10209704 3.91043228 1.10209704 3.91043228 2 1 C1.34 0.67 0.68 0.34 0 0 Z " fill="#999999" transform="translate(185,267)"/>
<path d="M0 0 C1.89213369 2.38573379 3.02391783 4.07175348 4 7 C4.99 7.66 5.98 8.32 7 9 C6.195625 8.814375 5.39125 8.62875 4.5625 8.4375 C3.716875 8.293125 2.87125 8.14875 2 8 C1.67 8.33 1.34 8.66 1 9 C-1.01964199 9.07244053 -3.04167124 9.08377188 -5.0625 9.0625 C-6.71958984 9.04896484 -6.71958984 9.04896484 -8.41015625 9.03515625 C-9.26480469 9.02355469 -10.11945313 9.01195312 -11 9 C-11.625 7.125 -11.625 7.125 -12 5 C-11.34 4.34 -10.68 3.68 -10 3 C-8.32995171 3.31595508 -6.66362417 3.65179959 -5 4 C-2.27497035 3.62277985 -2.27497035 3.62277985 0 3 C0 2.01 0 1.02 0 0 Z " fill="#969696" transform="translate(110,266)"/>
<path d="M0 0 C0.33 0.99 0.66 1.98 1 3 C2.98 3 4.96 3 7 3 C7 4.65 7 6.3 7 8 C7.66 8 8.32 8 9 8 C9 6.35 9 4.7 9 3 C9.99 3 10.98 3 12 3 C12.33 2.34 12.66 1.68 13 1 C13 1.66 13 2.32 13 3 C13.99 3 14.98 3 16 3 C16.33 2.34 16.66 1.68 17 1 C17 1.66 17 2.32 17 3 C17.66 3.33 18.32 3.66 19 4 C18.34 4 17.68 4 17 4 C17 5.32 17 6.64 17 8 C17.66 8.33 18.32 8.66 19 9 C18.01 9 17.02 9 16 9 C16 7.35 16 5.7 16 4 C15.01 4 14.02 4 13 4 C13 5.32 13 6.64 13 8 C13.66 8.33 14.32 8.66 15 9 C11.04 9 7.08 9 3 9 C3 7.35 3 5.7 3 4 C2.34 4 1.68 4 1 4 C1 5.65 1 7.3 1 9 C0.67 9 0.34 9 0 9 C0 6.03 0 3.06 0 0 Z " fill="#747474" transform="translate(60,266)"/>
<path d="M0 0 C0.99 0.33 1.98 0.66 3 1 C5.63804589 0.60602665 5.63804589 0.60602665 8 0 C9.08174162 3.36541838 8.92538169 4.29847322 8 8 C4.7 8 1.4 8 -2 8 C-1.34 7.67 -0.68 7.34 0 7 C-0.66 5.02 -1.32 3.04 -2 1 C-1.34 0.67 -0.68 0.34 0 0 Z " fill="#9C9C9C" transform="translate(150,267)"/>
<path d="M0 0 C2.01822917 0.06510417 4.03645833 0.13020833 6.0546875 0.1953125 C7.1796875 3.9453125 7.1796875 3.9453125 6.0546875 6.1953125 C3.0846875 6.1953125 0.1146875 6.1953125 -2.9453125 6.1953125 C-3.2753125 4.8753125 -3.6053125 3.5553125 -3.9453125 2.1953125 C-1.9453125 0.1953125 -1.9453125 0.1953125 0 0 Z " fill="#909090" transform="translate(121.9453125,268.8046875)"/>
<path d="M0 0 C3.125 0.375 3.125 0.375 6 1 C6 2.32 6 3.64 6 5 C6.66 5.33 7.32 5.66 8 6 C5.03 6 2.06 6 -1 6 C-1.33 4.68 -1.66 3.36 -2 2 C-1.34 1.34 -0.68 0.68 0 0 Z " fill="#898989" transform="translate(100,269)"/>
<path d="M0 0 C2 1 2 1 3 2 C3.66 1.67 4.32 1.34 5 1 C5 2.98 5 4.96 5 7 C3.02 7.33 1.04 7.66 -1 8 C-1.625 5.6875 -1.625 5.6875 -2 3 C-1.34 2.01 -0.68 1.02 0 0 Z " fill="#7B7B7B" transform="translate(168,267)"/>
<path d="M0 0 C2.97 0 5.94 0 9 0 C8.01 0.495 8.01 0.495 7 1 C7 2.65 7 4.3 7 6 C6.34 6 5.68 6 5 6 C5 5.01 5 4.02 5 3 C3.68 3 2.36 3 1 3 C1 3.66 1 4.32 1 5 C1.99 5.33 2.98 5.66 4 6 C2.68 6 1.36 6 0 6 C-1.125 2.25 -1.125 2.25 0 0 Z " fill="#767676" transform="translate(80,269)"/>
<path d="M0 0 C2.97 0.495 2.97 0.495 6 1 C6 2.98 6 4.96 6 7 C5.01 6.34 4.02 5.68 3 5 C2.67 5.33 2.34 5.66 2 6 C2.66 6.66 3.32 7.32 4 8 C2.35 8 0.7 8 -1 8 C-0.690625 7.401875 -0.38125 6.80375 -0.0625 6.1875 C1.10209704 3.91043228 1.10209704 3.91043228 2 1 C1.34 0.67 0.68 0.34 0 0 Z " fill="#686868" transform="translate(185,267)"/>
<path d="M0 0 C0.66 0.33 1.32 0.66 2 1 C2 1.66 2 2.32 2 3 C2.31478446 4.33783393 2.64587656 5.67203709 3 7 C1.68 7.33 0.36 7.66 -1 8 C-1.625 5.6875 -1.625 5.6875 -2 3 C-1.34 2.01 -0.68 1.02 0 0 Z " fill="#7E7E7E" transform="translate(204,267)"/>
<path d="M0 0 C2.0625 0.4375 2.0625 0.4375 4 1 C3.6875 3.375 3.6875 3.375 3 6 C2.01 6.66 1.02 7.32 0 8 C-0.38063221 5.6739143 -0.71269945 3.33944736 -1 1 C-0.67 0.67 -0.34 0.34 0 0 Z " fill="#818181" transform="translate(161,267)"/>
<path d="M0 0 C0.33 0.66 0.66 1.32 1 2 C1.99 2 2.98 2 4 2 C4.33 1.34 4.66 0.68 5 0 C5 0.66 5 1.32 5 2 C5.66 2.33 6.32 2.66 7 3 C6.34 3 5.68 3 5 3 C5 4.32 5 5.64 5 7 C5.66 7.33 6.32 7.66 7 8 C6.01 8 5.02 8 4 8 C4 6.35 4 4.7 4 3 C3.01 3 2.02 3 1 3 C1 4.32 1 5.64 1 7 C1.66 7.33 2.32 7.66 3 8 C2.01 8 1.02 8 0 8 C0 5.36 0 2.72 0 0 Z " fill="#4B4B4B" transform="translate(72,267)"/>
<path d="M0 0 C2 0.25 2 0.25 4 1 C4.33 1.99 4.66 2.98 5 4 C3.35 4.33 1.7 4.66 0 5 C-0.5625 3.0625 -0.5625 3.0625 -1 1 C-0.67 0.67 -0.34 0.34 0 0 Z " fill="#B0B0B0" transform="translate(119,270)"/>
<path d="M0 0 C1.32 0 2.64 0 4 0 C3.43628586 3.26954202 2.50037734 4.82575883 0 7 C-1.125 2.25 -1.125 2.25 0 0 Z " fill="#E5E5E5" transform="translate(183,268)"/>
<path d="M0 0 C0.66 0.99 1.32 1.98 2 3 C1.5390625 5.26171875 1.5390625 5.26171875 0.625 7.6875 C0.18027344 8.89986328 0.18027344 8.89986328 -0.2734375 10.13671875 C-0.51320312 10.75160156 -0.75296875 11.36648437 -1 12 C-2.45606519 7.47907032 -1.27032841 4.48351204 0 0 Z " fill="#D4D4D4" transform="translate(172,161)"/>
</svg>
